# xmcd CD database file
#
# Track frame offsets:
#	150
#	3300
#	4490
#	7080
#	13960
#	17142
#	18015
#	19350
#	23670
#	28502
#	34102
#	40817
#	43235
#	44595
#	45895
#	47102
#	50032
#
# Disc length: 682 seconds
#
# Revision: 0
# Processed by: cddbd v1.5.1PL0 Copyright (c) Steve Scherf et al.
# Submitted via: CDex 1.51
#
DISCID=d202a811
DTITLE=Diversen Artiesten - WK Medley
DYEAR=1998
DGENRE=Nederlands
TTITLE0=Ole, Allez
TTITLE1=Oranje, dat kan je
TTITLE2=Ole, Allez
TTITLE3=Wij houden van Oranje
TTITLE4=Hup Holland Hup
TTITLE5=Aida Mars
TTITLE6=Ole, We are the champions
TTITLE7=Nederland, die heeft de bal
TTITLE8=Koning voetbal
TTITLE9=Oranje bovenaan
TTITLE10=Radetzky mars
TTITLE11=Ole, Allez
TTITLE12=Wat zijn die Duitsers stil
TTITLE13=Oranje boven
TTITLE14=Ole, Allez
TTITLE15=He Frankrijk
TTITLE16=Wilhelmus
EXTD=YEAR: 1998
EXTT0=
EXTT1=
EXTT2=
EXTT3=
EXTT4=
EXTT5=
EXTT6=
EXTT7=
EXTT8=
EXTT9=
EXTT10=
EXTT11=
EXTT12=
EXTT13=
EXTT14=
EXTT15=
EXTT16=
PLAYORDER=
